<svg width="19" height="19" viewBox="0 0 19 19" fill="none" xmlns="http://www.w3.org/2000/svg">
<path d="M15.545 6.79526H13.1826V9.51204H10.4658V11.8745H13.1826V14.5912H15.545V11.8745H18.2618V9.51204H15.545V6.79526Z" fill="#27AE60"/>
<path d="M9.28455 8.33087H12.0013V5.61408H16.7262V8.33087H18.0963C18.5872 7.54339 18.872 6.65064 18.872 5.67196C18.872 2.94408 16.6611 0.732227 13.9338 0.732227C12.2766 0.732227 10.8103 1.54848 9.91453 2.80108C9.01878 1.54844 7.55243 0.731873 5.89531 0.731873C3.16798 0.731873 0.957031 2.94321 0.957031 5.67114C0.957031 6.85699 1.37486 7.94504 2.07127 8.79646L9.91453 18.2924L12.0013 15.7659V13.0557H9.28455V8.33087Z" fill="#27AE60"/>
</svg>
